<svg width="1550" height="404" viewBox="0 0 1550 404" fill="none" xmlns="http://www.w3.org/2000/svg">
<path d="M4.48047 8.5C14.1471 110 80.4805 298.3 268.48 239.5C456.48 180.7 585.814 122.333 625.48 100.5" stroke="#E1918F" stroke-width="9"/>
<path d="M882.98 107.15C913.385 66.4397 1013.37 11.971 1170.08 119.776C1326.78 227.582 1488.43 331.082 1519.48 358" stroke="#E1918F" stroke-width="9"/>
<path d="M681.938 179.535C684.436 166.535 679.936 187.535 675.438 191.035C670.941 194.535 638.936 192.535 636.438 191.035C633.941 189.535 629.438 186.435 627.438 176.035C625.438 165.635 622.938 106.035 624.438 101.035C625.938 96.0349 633.938 96.0349 633.938 96.0349C633.938 96.0349 668.438 96.0349 671.938 96.0349C675.438 96.0349 681.938 103.535 681.938 105.535C681.938 107.535 680.438 174.535 681.938 176.035C683.438 177.535 688.941 174.535 695.438 179.535C701.936 184.535 712.938 216.035 721.438 217.535C729.938 219.035 740.938 219.035 741.938 216.035C742.738 213.635 734.941 200.535 730.938 192.535C726.936 184.535 746.936 219.535 751.438 219.035C755.94 218.535 767.436 213.535 767.938 210.035C768.441 206.535 751.438 183.035 751.438 182.035C751.438 181.035 770.438 213.635 776.438 212.035C783.938 210.035 791.941 207.035 791.438 204.035C790.936 201.035 776.438 175.535 773.938 171.035C771.438 166.535 790.438 208.535 800.438 204.035C810.438 199.535 812.938 195.535 810.438 187.535C807.938 179.535 814.438 184.035 821.438 184.535C828.438 185.035 823.938 195.035 832.938 195.535C841.938 196.035 866.438 198.535 871.438 195.535C876.438 192.535 879.438 172.535 879.938 162.535C880.438 152.535 885.938 108.035 884.938 105.535C883.938 103.035 875.938 96.0349 859.938 96.0349C843.938 96.0349 832.438 93.035 829.438 96.0349C827.038 98.4349 825.105 100.368 824.438 101.035L821.438 179.535C816.938 181.202 807.338 183.535 804.938 179.535C801.938 174.535 774.938 116.535 769.438 115.035C763.938 113.535 760.938 116.535 757.938 119.035C754.938 121.535 740.436 133.535 732.938 135.535C725.441 137.535 724.436 138.035 720.438 134.535C716.441 131.035 713.436 130.035 716.436 123.535C719.436 117.035 747.438 87.5349 749.438 85.0349C751.438 82.5349 764.438 77.5349 766.938 78.0349C769.438 78.5349 777.438 77.0349 783.938 80.0349C790.438 83.0349 801.938 89.5349 802.938 90.0349C803.938 90.5349 815.438 98.5349 816.438 99.0349C817.238 99.4349 821.105 102.202 822.938 103.535" stroke="#E1918F" stroke-width="9"/>
</svg>
