<svg width="1322" height="549" viewBox="0 0 1322 549" fill="none" xmlns="http://www.w3.org/2000/svg">
<path d="M14.4566 325.265C-57.5434 147.265 284.457 240.265 287.457 91.7654C290.456 -56.7346 608.456 15.7654 608.456 154.265C608.456 292.765 750.956 224.265 810.956 213.765C858.956 205.365 931.455 75.7654 896.456 19.7654C861.457 -36.2346 810.956 130.067 710.456 44.2652C609.956 -41.5371 609.956 138.266 710.456 146.265C810.956 154.265 1071.96 -52.2346 1187.46 19.7654C1302.96 91.7654 1370.96 273.766 1263.96 358.266C1156.96 442.766 969.456 594.932 931.956 499.765C894.456 404.598 1067.96 404.765 952.456 344.765C836.957 284.766 705.79 466.932 515.956 462.765C515.956 462.765 276.457 462.765 314.956 301.265C353.456 139.765 340.456 257.765 453.456 301.265C566.457 344.765 344.457 515.766 188.456 541.765C32.4557 567.765 14.4566 325.265 14.4566 325.265Z" stroke="#E1918F" stroke-width="9"/>
</svg>
