<svg width="1132" height="614" viewBox="0 0 1132 614" fill="none" xmlns="http://www.w3.org/2000/svg">
<path d="M671.626 586.627C675.626 588.127 695.126 598.627 697.626 599.127C700.126 599.627 707.126 601.127 711.126 601.127C715.126 601.127 722.126 598.627 724.126 595.627C726.126 592.627 731.126 589.627 738.626 586.627C746.126 583.627 798.626 561.127 803.626 557.627C808.626 554.127 814.126 528.127 815.626 524.127C817.126 520.127 812.626 515.127 811.626 513.127C810.626 511.127 787.126 463.627 785.626 460.627C784.126 457.627 773.626 435.627 772.126 424.627C770.626 413.627 796.126 420.127 799.626 417.627C803.126 415.127 804.626 413.127 805.626 409.627C806.626 406.127 812.126 388.127 817.126 383.127C822.126 378.127 836.126 364.627 838.126 363.127C840.126 361.627 839.126 351.127 841.626 343.627C844.126 336.127 867.626 304.127 872.626 296.627C877.626 289.127 933.626 202.627 946.626 186.127C959.626 169.627 975.626 171.127 978.626 169.627C981.626 168.127 993.626 172.127 996.126 173.627C998.626 175.127 1010.63 180.627 1015.13 183.127C1019.63 185.627 1042.63 200.127 1045.63 202.627C1048.63 205.127 1065.63 212.627 1069.63 214.127C1073.63 215.627 1083.63 227.627 1086.13 229.127C1088.63 230.627 1097.63 229.627 1106.63 229.127C1115.63 228.627 1124.63 215.127 1126.63 212.627C1128.63 210.127 1126.13 181.627 1125.63 179.627C1125.13 177.627 1105.63 157.627 1102.63 154.627C1099.63 151.627 1085.13 127.627 1083.13 124.127C1081.13 120.627 1046.13 78.1267 1043.63 76.1267C1041.13 74.1267 995.126 34.6267 990.126 27.6267C984.126 25.6267 986.126 2.62669 983.126 4.62669C980.126 6.62669 978.126 12.6267 974.126 20.6267C970.126 28.6267 977.126 35.6267 975.626 39.6267C974.126 43.6267 947.626 37.6267 938.626 34.6267C929.626 31.6267 916.626 39.1267 914.126 42.6267C911.626 46.1267 888.626 64.1267 878.626 71.1267C868.626 78.1267 819.626 71.1267 824.126 76.6267C828.626 82.1267 868.626 81.6267 866.626 84.6267C864.626 87.6267 813.126 93.6267 807.126 95.1267C801.126 96.6267 775.626 111.127 765.626 116.627C757.626 121.027 785.293 118.46 800.126 116.627C783.126 124.127 745.026 139.827 728.626 142.627C708.126 146.127 683.626 119.127 685.126 128.627C686.626 138.127 703.626 151.127 709.126 160.627C714.626 170.127 653.126 175.127 643.626 178.127C636.026 180.527 592.126 179.127 571.126 178.127C570.626 177.96 554.126 175.127 492.126 165.127C487.626 162.627 434.626 150.627 425.126 148.127C416.237 145.787 356.126 144.127 347.126 144.127C340.126 143.127 311.626 154.127 308.626 155.127C306.226 155.927 276.96 175.793 262.626 185.627C249.293 188.96 220.927 195.727 214.127 196.127C205.627 196.627 156.127 199.627 144.627 199.627C133.127 199.627 69.627 197.627 65.127 197.627C60.627 197.627 37.627 197.627 33.127 199.627C28.627 201.627 23.127 206.627 15.127 214.627C7.12695 222.627 4.62695 242.627 5.62695 241.127C6.62695 239.627 17.127 227.127 20.627 225.127C24.127 223.127 39.127 223.127 37.627 224.127C36.127 225.127 32.127 229.127 29.127 231.127C26.127 233.127 16.1265 246.627 11.1265 252.627C6.12646 258.627 3.12646 291.127 5.12646 289.127C7.12646 287.127 23.1265 271.127 27.1265 267.127C31.1265 263.127 60.1265 255.627 60.1265 258.127C60.1265 260.627 55.1258 265.627 50.6258 272.127C46.1258 278.627 17.1258 296.627 20.6258 297.627C24.1258 298.627 44.1258 295.627 64.1258 289.627C84.1258 283.627 117.126 258.127 121.626 254.127C126.126 250.127 148.626 225.627 147.626 230.127C146.626 234.627 156.627 255.627 156.127 251.627C155.627 247.627 157.627 236.127 158.127 231.627C158.627 227.127 186.627 208.627 179.127 221.627C171.627 234.627 198.627 250.627 196.627 249.127C194.627 247.627 194.127 240.627 194.127 236.127C194.127 231.627 195.127 231.627 196.127 228.627C197.127 225.627 207.627 220.627 221.127 219.627C234.627 218.627 239.627 221.127 242.627 222.627C245.627 224.127 246.127 231.127 242.627 243.127C239.127 255.127 237.127 259.127 234.627 277.627C232.127 296.127 253.627 319.627 261.627 328.627C267.127 337.627 297.127 349.127 301.127 352.627C305.127 356.127 306.626 359.127 299.126 376.127C291.626 393.127 276.627 408.627 260.627 416.627C244.627 424.627 240.626 433.127 239.626 437.627C238.626 442.127 246.126 455.627 255.626 462.627C265.126 469.627 292.626 482.127 299.126 485.627C305.626 489.127 340.626 510.627 347.126 513.627C353.626 516.627 367.626 530.627 368.626 533.627C369.626 536.627 372.126 539.627 376.626 542.127C381.126 544.627 389.126 536.627 392.126 538.127C395.126 539.627 393.626 548.127 391.126 550.627C388.626 553.127 378.626 558.127 375.126 562.127C371.626 566.127 374.126 581.627 375.126 585.627C376.126 589.627 394.626 607.127 398.126 609.127C401.626 611.127 407.626 594.127 409.126 592.127C410.626 590.127 417.626 546.627 418.626 542.127C419.626 537.627 419.626 532.627 420.626 529.627C421.626 526.627 415.626 519.627 414.126 516.127C412.926 513.327 401.626 504.96 396.126 501.127C366.626 483.627 307.426 448.327 306.626 447.127C305.626 445.627 303.626 441.127 304.126 437.627C304.526 434.827 331.626 417.127 345.126 408.627C353.46 404.46 371.226 396.427 375.626 397.627C381.126 399.127 372.126 418.127 371.126 425.627C370.326 431.627 358.46 455.46 352.626 466.627C352.293 469.127 351.826 474.527 352.626 476.127C353.626 478.127 397.626 497.127 399.626 497.627C401.626 498.127 417.126 512.627 418.626 516.127C419.826 518.927 422.126 522.96 423.126 524.627C435.126 531.293 459.426 544.827 460.626 545.627C461.826 546.427 475.126 553.293 481.626 556.627C486.126 557.293 495.626 558.627 497.626 558.627C500.126 558.627 535.126 560.127 535.626 556.127C536.126 552.127 529.126 544.627 525.626 540.127C522.826 536.527 505.793 528.293 497.626 524.627C479.96 515.46 443.826 496.627 440.626 494.627C436.626 492.127 420.626 481.127 417.126 479.127C413.626 477.127 413.126 475.627 414.126 470.127C415.126 464.627 418.626 453.627 420.626 449.127C422.626 444.627 435.626 411.627 440.626 402.127C445.626 392.627 452.626 376.127 455.626 368.627C458.626 361.127 463.126 344.127 468.626 338.127C474.126 332.127 517.626 367.127 527.626 376.127C537.626 385.127 592.626 402.627 606.126 406.627C619.626 410.627 642.126 418.627 650.626 423.627C657.426 427.627 652.793 444.293 649.626 452.127C637.793 474.627 613.326 520.927 610.126 526.127C606.126 532.627 585.126 563.127 581.626 564.627C578.126 566.127 514.626 564.627 508.626 564.627C502.626 564.627 481.626 563.127 479.626 563.127C477.626 563.127 476.126 560.627 474.626 560.127C473.126 559.627 469.126 556.127 467.626 556.127C466.126 556.127 463.126 559.627 462.626 561.127C462.226 562.327 459.46 566.96 458.126 569.127C455.96 569.293 451.426 569.527 450.626 569.127C449.626 568.627 448.626 567.127 445.626 564.627C442.626 562.127 445.626 556.127 444.126 553.127C442.626 550.127 441.126 550.127 436.126 546.627C431.126 543.127 420.626 541.127 419.626 548.127C418.626 555.127 410.626 575.627 413.626 583.627C416.626 591.627 425.626 589.627 430.126 589.127C434.626 588.627 450.626 591.127 458.126 591.627C465.626 592.127 477.626 599.627 479.626 600.127C481.626 600.627 499.626 602.127 505.626 602.127C511.626 602.127 598.626 598.127 605.126 597.127C611.626 596.127 622.626 588.627 627.126 583.127C631.626 577.627 630.626 572.627 636.126 567.127C641.626 561.627 656.126 586.127 660.126 586.127C664.126 586.127 667.626 585.127 671.626 586.627ZM671.626 586.627C674.127 579.293 680.427 563.727 685.627 560.127C692.127 555.627 694.627 550.627 704.627 554.127C714.627 557.627 710.127 562.627 720.127 560.127C730.127 557.627 771.127 537.127 776.127 531.627C781.127 526.127 785.627 514.627 782.127 513.127C778.627 511.627 715.128 470.127 713.127 468.127C711.126 466.127 678.127 508.127 673.627 517.127C669.127 526.127 663.127 529.127 664.127 531.627C665.127 534.127 674.627 539.627 675.627 541.627C676.627 543.627 679.127 560.747 682.127 560.627M1023.13 102.627C1023.79 100.293 1026.13 95.3267 1030.13 94.1267C1035.13 92.6267 1037.63 91.1267 1040.63 91.6267C1043.63 92.1267 1047.63 92.1267 1050.13 90.1267" stroke="#E1918F" stroke-width="9"/>
<ellipse cx="1043.63" cy="103.127" rx="5.5" ry="5" fill="#E1918F"/>
</svg>
