<svg width="1601" height="369" viewBox="0 0 1601 369" fill="none" xmlns="http://www.w3.org/2000/svg">
<path d="M38.4674 0H1558.47C1558.47 0 1652.05 263.465 1558.47 244.5C1475.86 227.759 1555.86 91.9273 1489.47 40C1388.19 -39.2132 1589.27 359.7 1460.97 368C1331.67 376.365 1482.73 -67.8872 1410.97 40C1395.54 63.2 1407.96 109.005 1380.47 104.5C1354.61 100.263 1371.83 64.2763 1361.97 40C1315.17 -75.1463 1439.97 341.022 1316.47 355C1190.11 369.301 1302.47 -67.1384 1233.97 40C1219.18 63.1355 1233.42 103.792 1205.97 104.5C1178.2 105.216 1200.76 52.5329 1175.97 40C1136.15 19.8742 1180.57 146.454 1135.97 147C1091.15 147.549 1126.78 8.94284 1094.47 40C1086.42 47.7314 1090.09 64.8585 1078.97 64C1068.34 63.1799 1074.17 46.8084 1065.97 40C1044.78 22.4106 1064.94 106.335 1037.47 104.5C1010.72 102.714 1027.79 62.9706 1013.97 40C964.424 -42.3348 1057.71 272.288 961.967 280.5C864.06 288.897 944.977 -40.0385 887.967 40C872.125 62.2414 888.253 103.438 860.967 104.5C833.208 105.581 858.173 34.3783 830.967 40C814.309 43.4423 818.678 75.6813 801.967 72.5C787.427 69.7318 796.344 45.15 782.467 40C760.508 31.8503 776.698 89.5083 753.467 92.5C728.251 95.7475 739.032 48.2044 714.967 40C672.934 25.6694 720.622 151.744 676.467 147C633.711 142.407 673.655 76.2145 650.467 40C598.14 -41.7236 684.108 293.686 587.967 280.5C494.266 267.649 631.046 -21.8184 559.467 40C546.789 50.95 548.205 71.7881 531.467 72.5C514.077 73.2397 518.235 42.1911 500.967 40C476.629 36.9117 490.953 94.0258 466.467 92.5C442.899 91.0314 454.115 55.6905 436.467 40C384.889 -5.86001 424.467 116 374.467 205.5C324.467 295 293.967 -69.5 248.967 50C203.967 169.5 209.967 260 172.467 256.5C134.967 253 118.967 72.5 85.4674 72.5C51.9674 72.5 106.659 249.553 38.4674 321C-48.0842 411.684 38.4674 0 38.4674 0Z" fill="#D9D9D9"/>
</svg>
